<svg width="1004" height="981" viewBox="0 0 1004 981" fill="none" xmlns="http://www.w3.org/2000/svg">
<path d="M490.44 980.88C761.303 980.88 980.88 761.303 980.88 490.44C980.88 219.577 761.303 0 490.44 0C219.577 0 0 219.577 0 490.44C0 761.303 219.577 980.88 490.44 980.88Z" fill="#ECB8B3"/>
<path d="M932.726 722.582H904.857C904.204 722.582 903.675 722.053 903.675 721.4V714.143C900.305 713.479 896.96 712.584 893.704 711.476L890.079 717.758C889.922 718.029 889.664 718.227 889.361 718.308C889.059 718.387 888.736 718.345 888.465 718.19L864.328 704.255C863.763 703.928 863.569 703.206 863.896 702.64L867.531 696.344C864.948 694.08 862.502 691.633 860.239 689.052L853.942 692.687C853.374 693.013 852.653 692.82 852.327 692.255L838.393 668.118C838.067 667.553 838.26 666.83 838.826 666.504L845.106 662.878C843.997 659.62 843.102 656.274 842.439 652.908H835.182C834.529 652.908 834 652.379 834 651.726V623.857C834 623.203 834.529 622.675 835.182 622.675H842.439C843.102 619.308 843.997 615.962 845.106 612.704L838.826 609.078C838.26 608.752 838.067 608.03 838.393 607.464L852.327 583.327C852.484 583.056 852.742 582.858 853.045 582.777C853.347 582.698 853.671 582.739 853.942 582.895L860.24 586.531C862.501 583.952 864.947 581.505 867.532 579.238L863.896 572.941C863.57 572.376 863.763 571.653 864.328 571.327L888.465 557.393C888.736 557.235 889.059 557.194 889.361 557.275C889.664 557.356 889.922 557.554 890.079 557.825L893.702 564.101C896.74 563.037 900.162 561.915 903.675 561.191V554.182C903.675 553.528 904.204 553 904.857 553H932.726C933.379 553 933.908 553.528 933.908 554.182V561.439C937.274 562.101 940.62 562.997 943.879 564.106L947.504 557.826C947.661 557.554 947.919 557.356 948.222 557.275C948.526 557.195 948.848 557.237 949.119 557.393L973.255 571.327C973.526 571.484 973.724 571.743 973.805 572.045C973.887 572.347 973.844 572.671 973.688 572.942L970.052 579.239C972.634 581.503 975.081 583.95 977.344 586.532L983.642 582.895C983.913 582.738 984.236 582.697 984.538 582.777C984.841 582.858 985.099 583.057 985.256 583.328L999.19 607.465C999.516 608.03 999.323 608.753 998.758 609.079L992.477 612.705C993.586 615.963 994.481 619.309 995.145 622.675H1002.4C1003.05 622.675 1003.58 623.204 1003.58 623.857V651.726C1003.58 652.379 1003.05 652.908 1002.4 652.908H995.145C994.481 656.274 993.586 659.62 992.477 662.878L998.758 666.504C999.323 666.83 999.517 667.553 999.19 668.118L985.256 692.255C984.93 692.82 984.208 693.013 983.642 692.687L977.344 689.052C975.081 691.635 972.634 694.081 970.052 696.344L973.688 702.64C973.844 702.912 973.886 703.235 973.805 703.537C973.724 703.839 973.526 704.098 973.255 704.255L949.119 718.19C948.847 718.345 948.523 718.387 948.222 718.308C947.919 718.227 947.661 718.029 947.504 717.758L943.879 711.476C940.624 712.584 937.279 713.479 933.908 714.143V721.4C933.908 722.053 933.379 722.582 932.726 722.582ZM906.039 720.218H931.545V713.165C931.545 712.595 931.952 712.106 932.514 712.003C936.41 711.288 940.281 710.252 944.019 708.926C944.555 708.735 945.153 708.955 945.438 709.448L948.961 715.552L971.05 702.799L967.517 696.68C967.232 696.187 967.34 695.56 967.773 695.19C970.785 692.618 973.616 689.786 976.191 686.773C976.561 686.339 977.186 686.234 977.68 686.516L983.8 690.049L996.552 667.96L990.449 664.437C989.956 664.151 989.736 663.555 989.927 663.018C991.254 659.274 992.289 655.404 993.004 651.512C993.107 650.951 993.596 650.543 994.166 650.543H1001.22V625.038H994.166C993.596 625.038 993.106 624.631 993.004 624.07C992.289 620.178 991.254 616.307 989.927 612.564C989.736 612.027 989.956 611.43 990.449 611.145L996.552 607.622L983.8 585.533L977.68 589.066C977.188 589.35 976.562 589.244 976.191 588.81C973.618 585.799 970.786 582.966 967.773 580.392C967.34 580.022 967.232 579.395 967.517 578.902L971.05 572.783L948.961 560.031L945.438 566.134C945.152 566.628 944.556 566.848 944.02 566.656C940.275 565.329 936.403 564.292 932.514 563.578C931.952 563.476 931.545 562.986 931.545 562.416V555.364H906.039V562.163C906.039 562.734 905.632 563.223 905.07 563.325C901.026 564.069 897.011 565.434 893.564 566.656C893.027 566.848 892.431 566.626 892.146 566.134L888.623 560.031L866.534 572.783L870.067 578.902C870.352 579.395 870.244 580.022 869.811 580.391C866.796 582.968 863.963 585.802 861.393 588.81C861.025 589.244 860.396 589.349 859.904 589.066L853.784 585.533L841.032 607.622L847.135 611.145C847.628 611.43 847.848 612.027 847.657 612.564C846.33 616.307 845.295 620.178 844.58 624.07C844.477 624.631 843.988 625.038 843.418 625.038H836.365V650.543H843.418C843.988 650.543 844.478 650.951 844.58 651.512C845.295 655.403 846.33 659.274 847.657 663.018C847.848 663.555 847.628 664.151 847.135 664.437L841.032 667.96L853.784 690.049L859.904 686.516C860.398 686.235 861.025 686.339 861.393 686.773C863.965 689.783 866.797 692.615 869.811 695.19C870.244 695.56 870.352 696.186 870.067 696.68L866.534 702.799L888.623 715.552L892.146 709.448C892.432 708.954 893.03 708.735 893.565 708.926C897.303 710.252 901.174 711.288 905.07 712.003C905.632 712.106 906.039 712.596 906.039 713.165V720.218ZM918.899 688.665C905.421 688.665 892.499 683.525 882.778 673.804C868.629 659.654 864.182 638.717 871.174 619.163C876.026 605.592 886.592 595.024 900.165 590.172C919.717 583.181 940.655 587.626 954.805 601.779C968.955 615.929 973.402 636.865 966.41 656.42C961.557 669.991 950.99 680.558 937.419 685.41C931.298 687.598 925.04 688.665 918.899 688.665ZM918.676 589.282C912.802 589.282 906.818 590.304 900.96 592.397C888.058 597.011 878.013 607.056 873.399 619.959C866.718 638.643 870.953 658.635 884.449 672.132C897.947 685.63 917.94 689.863 936.623 683.184C949.525 678.571 959.57 668.526 964.184 655.624C970.865 636.939 966.631 616.947 953.134 603.45C943.868 594.184 931.54 589.282 918.676 589.282Z" fill="white"/>
<path d="M805.265 148.561H575.583V345.486H805.265V148.561Z" fill="#D3BBA3"/>
<path d="M786.102 127H558V323.925H786.102V127Z" fill="white"/>
<path d="M644.215 186.447C647.82 184.641 651.559 183.388 655.337 182.65L653.905 162.173C647.517 163.16 641.175 165.136 635.092 168.182C620.316 175.58 609.648 187.969 604.101 202.297L623.761 208.091C627.691 199.011 634.703 191.21 644.215 186.447Z" fill="#8B865C"/>
<path d="M622.635 240.021C620.116 232.917 619.556 225.481 620.731 218.385L601.071 212.589C598.61 224.53 599.52 237.241 604.3 249.201L622.635 240.021Z" fill="#E2A18D"/>
<path d="M723.102 201.713L704.768 210.893C712.016 231.335 703.05 254.522 683.188 264.468C663.325 274.413 639.416 267.686 627.429 249.617L609.094 258.798C626.195 286.919 662.381 297.718 692.311 282.732C722.241 267.746 735.318 232.28 723.102 201.713Z" fill="#D87355"/>
<path d="M666.028 181.912C679.452 182.654 692.212 189.598 699.973 201.297L718.309 192.117C706.622 172.898 686.023 161.772 664.596 161.437L666.028 181.912Z" fill="#EFBC73"/>
<path d="M917.557 494.937H639.329C638.676 494.937 638.147 494.409 638.147 493.756V422.16C638.147 421.507 638.676 420.979 639.329 420.979H917.557C918.21 420.979 918.739 421.507 918.739 422.16V493.756C918.739 494.409 918.21 494.937 917.557 494.937ZM640.511 492.574H916.375V423.342H640.511V492.574Z" fill="#D3BBA3"/>
<path d="M883.164 398.601C871.298 395.005 869.893 377.47 859.996 377.719C835.49 378.338 824.363 454.829 805.777 453.819C790.435 452.985 787.923 400.311 770.155 398.602C751.191 396.777 737.819 455.225 717.336 453.819C699.351 452.585 700.069 406.86 668.202 391.553C662.848 388.981 657.238 387.59 651.613 387.038V478.954H905.274V392.415C895.701 398.992 888.576 400.242 883.164 398.601Z" fill="#98726F"/>
<path d="M796.369 768.821H588.182C587.529 768.821 587 768.293 587 767.64V610.657C587 610.004 587.529 609.476 588.182 609.476C588.835 609.476 589.364 610.004 589.364 610.657V766.458H796.369C797.022 766.458 797.551 766.986 797.551 767.64C797.551 768.293 797.022 768.821 796.369 768.821Z" fill="#423F29"/>
<path d="M741.674 662.927C741.272 662.927 740.88 662.722 740.658 662.352C740.324 661.792 740.506 661.066 741.066 660.731L769.48 643.75C770.039 643.416 770.765 643.598 771.1 644.159C771.435 644.718 771.253 645.445 770.693 645.779L742.279 662.76C742.089 662.873 741.88 662.927 741.674 662.927Z" fill="#57553F"/>
<path d="M723.683 658.387C723.298 658.387 722.922 658.2 722.694 657.854L684.197 599.246C683.839 598.701 683.991 597.969 684.536 597.609C685.082 597.25 685.814 597.403 686.173 597.949L724.67 656.557C725.029 657.101 724.876 657.834 724.331 658.193C724.131 658.324 723.906 658.387 723.683 658.387Z" fill="#57553F"/>
<path d="M638.509 620.343C638.156 620.343 637.806 620.185 637.573 619.884C637.174 619.366 637.27 618.625 637.786 618.226L667.694 595.122C668.209 594.723 668.951 594.817 669.352 595.334C669.75 595.851 669.655 596.593 669.139 596.991L639.231 620.096C639.016 620.263 638.762 620.343 638.509 620.343Z" fill="#57553F"/>
<path d="M628.809 640.396C621.357 640.396 615.295 634.334 615.295 626.882C615.295 619.43 621.357 613.368 628.809 613.368C636.261 613.368 642.323 619.431 642.323 626.882C642.323 634.334 636.261 640.396 628.809 640.396ZM628.809 615.731C622.661 615.731 617.658 620.733 617.658 626.882C617.658 633.031 622.661 638.033 628.809 638.033C634.958 638.033 639.96 633.031 639.96 626.882C639.96 620.733 634.958 615.731 628.809 615.731Z" fill="#57553F"/>
<path d="M678.531 602.028C671.079 602.028 665.016 595.966 665.016 588.514C665.016 581.062 671.079 575 678.531 575C685.983 575 692.045 581.063 692.045 588.514C692.045 595.966 685.983 602.028 678.531 602.028ZM678.531 577.363C672.382 577.363 667.38 582.365 667.38 588.514C667.38 594.663 672.382 599.665 678.531 599.665C684.679 599.665 689.682 594.663 689.682 588.514C689.682 582.365 684.679 577.363 678.531 577.363Z" fill="#57553F"/>
<path d="M730.809 681.158C723.357 681.158 717.295 675.096 717.295 667.644C717.295 660.192 723.357 654.13 730.809 654.13C738.261 654.13 744.324 660.193 744.324 667.644C744.324 675.096 738.261 681.158 730.809 681.158ZM730.809 656.493C724.661 656.493 719.658 661.495 719.658 667.644C719.658 673.793 724.661 678.795 730.809 678.795C736.958 678.795 741.96 673.793 741.96 667.644C741.96 661.495 736.958 656.493 730.809 656.493Z" fill="#57553F"/>
<path d="M780.927 652.395C773.475 652.395 767.413 646.332 767.413 638.88C767.413 631.428 773.476 625.366 780.927 625.366C788.379 625.366 794.441 631.428 794.441 638.88C794.441 646.332 788.379 652.395 780.927 652.395ZM780.927 627.729C774.779 627.729 769.776 632.731 769.776 638.88C769.776 645.029 774.779 650.031 780.927 650.031C787.075 650.031 792.078 645.029 792.078 638.88C792.078 632.731 787.075 627.729 780.927 627.729Z" fill="#57553F"/>
<path d="M644.907 658.808H614.236V742.906H644.907V658.808Z" fill="white"/>
<path d="M695.522 642.054H664.851V742.905H695.522V642.054Z" fill="white"/>
<path d="M746.136 688.559H715.465V742.905H746.136V688.559Z" fill="white"/>
<path d="M796.751 672.952H766.08V742.905H796.751V672.952Z" fill="white"/>
<path d="M390.762 932.01H342.213C341.561 932.01 341.032 931.482 341.032 930.829V917.465C334.731 916.259 328.469 914.583 322.388 912.478L315.711 924.044C315.383 924.607 314.663 924.802 314.097 924.476L272.052 900.203C271.487 899.876 271.293 899.154 271.62 898.588L278.314 886.993C273.461 882.785 268.881 878.205 264.678 873.356L253.083 880.051C252.811 880.205 252.487 880.247 252.186 880.169C251.884 880.088 251.625 879.889 251.469 879.618L227.195 837.574C227.038 837.302 226.996 836.979 227.077 836.677C227.158 836.375 227.356 836.116 227.627 835.959L239.194 829.283C237.089 823.202 235.413 816.94 234.207 810.639H220.843C220.19 810.639 219.661 810.11 219.661 809.457V760.909C219.661 760.256 220.19 759.727 220.843 759.727L234.207 759.726C235.413 753.424 237.088 747.162 239.194 741.083L227.627 734.406C227.062 734.079 226.868 733.357 227.195 732.791L251.469 690.747C251.626 690.476 251.884 690.277 252.186 690.196C252.487 690.115 252.811 690.157 253.083 690.314L264.678 697.009C268.882 692.16 273.463 687.579 278.314 683.373L271.62 671.778C271.294 671.213 271.488 670.49 272.052 670.164L314.097 645.89C314.663 645.563 315.383 645.756 315.711 646.322L322.387 657.887C328.014 655.902 334.442 653.762 341.032 652.465V639.538C341.032 638.885 341.561 638.356 342.213 638.356H390.762C391.415 638.356 391.944 638.885 391.944 639.538V652.902C398.249 654.109 404.512 655.784 410.587 657.889L417.264 646.323C417.591 645.759 418.312 645.564 418.879 645.89L460.923 670.164C461.489 670.491 461.682 671.213 461.356 671.779L454.661 683.374C459.51 687.577 464.09 692.156 468.297 697.009L479.892 690.315C480.164 690.158 480.488 690.116 480.789 690.197C481.092 690.278 481.35 690.476 481.507 690.747L505.78 732.792C506.106 733.357 505.913 734.08 505.348 734.406L493.781 741.084C495.886 747.162 497.562 753.424 498.768 759.727H512.132C512.785 759.727 513.314 760.255 513.314 760.909V809.457C513.314 810.111 512.785 810.639 512.132 810.639H498.768C497.562 816.94 495.887 823.202 493.781 829.283L505.348 835.96C505.619 836.117 505.817 836.375 505.898 836.677C505.98 836.98 505.937 837.303 505.78 837.574L481.507 879.619C481.349 879.89 481.092 880.088 480.789 880.169C480.488 880.25 480.164 880.208 479.892 880.051L468.297 873.357C464.091 878.208 459.511 882.787 454.661 886.993L461.356 898.589C461.681 899.154 461.489 899.877 460.923 900.203L418.879 924.477C418.313 924.802 417.591 924.61 417.264 924.044L410.587 912.478C404.506 914.583 398.244 916.259 391.944 917.465V930.829C391.944 931.482 391.415 932.01 390.762 932.01ZM343.395 929.647H389.58V916.484C389.58 915.913 389.988 915.424 390.549 915.322C397.374 914.068 404.162 912.252 410.726 909.925C411.262 909.733 411.859 909.954 412.144 910.448L418.721 921.839L458.718 898.747L452.126 887.327C451.841 886.835 451.948 886.208 452.382 885.837C457.663 881.326 462.629 876.36 467.143 871.076C467.513 870.641 468.14 870.538 468.632 870.82L480.051 877.413L503.143 837.417L491.752 830.84C491.259 830.555 491.039 829.959 491.23 829.422C493.556 822.859 495.372 816.07 496.626 809.244C496.729 808.683 497.218 808.275 497.788 808.275H510.952V762.09H497.788C497.218 762.09 496.728 761.683 496.626 761.122C495.372 754.294 493.556 747.506 491.23 740.945C491.039 740.409 491.259 739.812 491.752 739.527L503.143 732.95L480.051 692.952L468.632 699.546C468.141 699.83 467.513 699.725 467.143 699.289C462.628 694.005 457.661 689.039 452.382 684.53C451.948 684.159 451.841 683.533 452.126 683.04L458.718 671.62L418.721 648.528L412.144 659.919C411.858 660.413 411.26 660.63 410.726 660.442C404.169 658.116 397.38 656.301 390.549 655.045C389.988 654.942 389.58 654.454 389.58 653.883V640.72H343.395V653.442C343.395 654.012 342.988 654.502 342.427 654.604C335.306 655.913 328.277 658.303 322.25 660.442C321.714 660.634 321.117 660.412 320.831 659.919L314.255 648.528L274.257 671.62L280.85 683.04C281.135 683.532 281.027 684.159 280.594 684.53C275.31 689.042 270.344 694.008 265.833 699.289C265.463 699.724 264.837 699.83 264.343 699.546L252.924 692.952L229.832 732.95L241.224 739.527C241.717 739.812 241.937 740.409 241.746 740.945C239.419 747.506 237.604 754.294 236.35 761.122C236.247 761.683 235.757 762.09 235.188 762.09H222.024V808.275H235.188C235.758 808.275 236.247 808.683 236.35 809.244C237.603 816.07 239.419 822.859 241.746 829.422C241.936 829.959 241.717 830.555 241.224 830.84L229.832 837.417L252.924 877.413L264.343 870.82C264.836 870.539 265.463 870.642 265.833 871.076C270.343 876.357 275.309 881.323 280.594 885.837C281.027 886.208 281.135 886.834 280.85 887.327L274.257 898.747L314.255 921.839L320.831 910.448C321.118 909.955 321.715 909.736 322.25 909.925C328.813 912.252 335.602 914.068 342.427 915.322C342.987 915.424 343.395 915.914 343.395 916.484V929.647ZM366.678 872.928C343.428 872.928 321.137 864.061 304.373 847.297C279.967 822.891 272.299 786.769 284.364 753.028C292.728 729.635 310.942 711.421 334.335 703.058C368.075 690.994 404.198 698.663 428.603 723.071C453.008 747.477 460.675 783.599 448.611 817.339C440.246 840.732 422.032 858.946 398.639 867.308C388.075 871.086 377.277 872.928 366.678 872.928ZM366.288 699.804C355.957 699.804 345.431 701.6 335.13 705.282C312.407 713.407 294.714 731.1 286.588 753.824C274.836 786.695 282.291 821.872 306.044 845.625C329.797 869.38 364.974 876.832 397.844 865.083C420.568 856.959 438.26 839.267 446.386 816.542C458.139 783.671 450.684 748.495 426.932 724.741C410.622 708.431 388.925 699.804 366.288 699.804Z" fill="white"/>
<path d="M390.306 594.895L444.852 978.666C242.886 969.053 139.033 858.536 88.961 763.463L99.4575 642.821L390.306 594.895Z" fill="#EFBC73"/>
<path d="M284.985 278.381C284.985 278.381 324.912 223.519 397.03 296.638C469.147 369.756 503.835 490.659 503.835 490.659L394.057 532.887L284.985 278.381Z" fill="white"/>
<path d="M87.8049 331.959C133.744 310.861 209.376 281.519 292.19 271.516L450.404 647.375L133.381 704.173L99.4575 638.799L82.7665 713.241L50.562 724.201L41.9592 403.557C41.9597 372.787 59.8428 344.801 87.8049 331.959Z" fill="#8B865C"/>
<path d="M114.357 326.562C114.357 326.562 180.695 291.94 248.813 282.753L253.405 412.127L114.357 326.562Z" fill="white"/>
<path d="M544.626 611.483H373.716L450.996 377.774H621.906L544.626 611.483Z" fill="#363E44"/>
<path d="M579.72 519.32C591.875 522.751 595.283 528.911 593.82 534.912C592.357 540.913 586.578 544.48 574.423 541.05C562.267 537.619 548.339 528.489 549.801 522.489C551.264 516.489 567.565 515.89 579.72 519.32Z" fill="#E2A18D"/>
<path d="M582.115 497.819C596.204 501.795 600.153 508.935 598.457 515.889C596.762 522.844 590.064 526.979 575.975 523.003C561.887 519.027 545.744 508.445 547.439 501.49C549.135 494.536 568.027 493.843 582.115 497.819Z" fill="#E2A18D"/>
<path d="M588.204 484.519C600.36 487.949 606.139 484.381 607.602 478.381C609.064 472.38 605.657 466.219 593.502 462.789C581.346 459.359 565.046 459.957 563.583 465.957C562.12 471.958 576.049 481.088 588.204 484.519Z" fill="#E2A18D"/>
<path d="M580.483 504.517C594.571 508.493 601.269 504.358 602.964 497.403C604.66 490.448 600.71 483.308 586.622 479.332C572.533 475.356 553.641 476.05 551.946 483.004C550.251 489.958 566.394 500.541 580.483 504.517Z" fill="#E2A18D"/>
<path d="M349.991 419.469C349.991 419.469 343.012 399.343 321 420.006C298.989 440.669 255.578 489.722 226.492 483.113C197.407 476.504 142.482 307.04 51.9454 351.337C-38.5915 395.634 33.157 537.08 73.8297 584.356C114.502 631.632 181.892 675.373 257.804 666.727C333.716 658.08 393.025 522.818 401.28 505.894C416.112 475.487 349.991 419.469 349.991 419.469Z" fill="white"/>
<path d="M352.191 402.441C352.191 402.441 403.396 317.766 437.982 329.235C472.568 340.704 427.322 343.963 429.505 356.073C429.505 356.073 451.758 361.028 446.975 374.58C446.975 374.58 457.221 382.94 456.537 389.644C456.537 389.644 478.481 407.477 467.606 416.51C458.341 424.207 454.578 408.649 444.532 410.454C434.484 412.259 430.895 452.617 410.575 453.872L397.03 484.324C397.03 484.324 348.795 430.61 352.191 402.441Z" fill="#E2A18D"/>
<path d="M435.305 391.892C435.002 391.892 434.698 391.775 434.467 391.543C434.007 391.081 434.009 390.333 434.472 389.872C439.838 384.538 450.763 387.251 451.225 387.369C451.857 387.53 452.238 388.173 452.077 388.806C451.916 389.437 451.277 389.823 450.64 389.659C450.54 389.636 440.55 387.16 436.138 391.548C435.907 391.778 435.606 391.892 435.305 391.892Z" fill="#363E44"/>
<path d="M426.637 375.757C426.299 375.757 425.963 375.614 425.73 375.334C425.313 374.836 425.376 374.096 425.872 373.676C426.12 373.468 432.044 368.613 441.562 372.609C442.164 372.861 442.447 373.554 442.194 374.156C441.942 374.757 441.248 375.044 440.647 374.788C432.512 371.373 427.598 375.316 427.393 375.486C427.171 375.669 426.904 375.757 426.637 375.757Z" fill="#363E44"/>
<path d="M356.988 391.419L342.876 413.461C342.876 413.461 365.742 471.245 397.031 490.659L408.446 467.909C408.445 467.909 372.726 415.757 356.988 391.419Z" fill="white"/>
<path d="M394.057 487.038C393.912 487.038 393.763 487.011 393.62 486.954C367.137 476.395 353.532 439.217 352.965 437.64C352.745 437.026 353.064 436.349 353.679 436.128C354.29 435.906 354.969 436.226 355.19 436.841C355.326 437.217 369.009 474.597 394.495 484.759C395.102 485 395.398 485.687 395.156 486.294C394.971 486.756 394.527 487.038 394.057 487.038Z" fill="#E6D0BE"/>
<path d="M203.194 517.038C202.417 517.038 201.647 516.948 200.909 516.764C198.876 516.253 197.259 515.051 196.357 513.378C194.179 509.338 196.733 504.676 198.45 502.256C202.705 496.255 208.819 491.471 215.667 488.785C216.276 488.546 216.961 488.846 217.199 489.454C217.438 490.062 217.138 490.748 216.53 490.985C210.106 493.506 204.369 497.994 200.378 503.623C198.978 505.596 196.866 509.341 198.438 512.256C199.185 513.644 200.507 514.226 201.485 514.471C203.42 514.957 205.761 514.549 207.444 513.435C210.652 511.307 212.488 507.318 213.964 504.113C214.236 503.52 214.939 503.26 215.531 503.534C216.124 503.806 216.383 504.508 216.11 505.101C214.51 508.578 212.518 512.905 208.751 515.404C207.144 516.468 205.149 517.038 203.194 517.038Z" fill="#E6D0BE"/>
<path d="M237.069 516.344C236.61 516.344 236.173 516.075 235.982 515.626L227.31 495.293C227.053 494.691 227.333 493.998 227.933 493.742C228.533 493.485 229.228 493.765 229.484 494.365L238.156 514.699C238.412 515.3 238.133 515.994 237.532 516.25C237.381 516.314 237.224 516.344 237.069 516.344Z" fill="#E6D0BE"/>
<path d="M356.556 418.437C353.497 418.437 351.009 415.949 351.009 412.89C351.009 409.831 353.497 407.343 356.556 407.343C359.615 407.343 362.103 409.831 362.103 412.89C362.103 415.949 359.615 418.437 356.556 418.437ZM356.556 409.706C354.801 409.706 353.373 411.135 353.373 412.89C353.373 414.646 354.801 416.073 356.556 416.073C358.312 416.073 359.74 414.646 359.74 412.89C359.74 411.135 358.312 409.706 356.556 409.706Z" fill="#E6D0BE"/>
<path d="M399.438 487.037C399.26 487.037 399.079 486.997 398.909 486.911C398.327 486.619 398.09 485.909 398.384 485.326L405.636 470.872C405.928 470.291 406.638 470.052 407.222 470.346C407.805 470.638 408.041 471.349 407.748 471.932L400.495 486.386C400.289 486.798 399.872 487.037 399.438 487.037Z" fill="#E6D0BE"/>
<path d="M161.316 339.293C159.576 339.293 157.757 338.71 156 337.56C153.399 335.861 151.222 333.103 149.869 329.792C147.015 322.81 148.766 315.464 153.773 313.417C156.275 312.395 159.161 312.814 161.898 314.604C164.497 316.302 166.675 319.06 168.027 322.372C170.882 329.354 169.131 336.7 164.124 338.746C163.23 339.112 162.285 339.293 161.316 339.293ZM156.575 315.239C155.91 315.239 155.268 315.36 154.667 315.606C150.867 317.159 149.696 323.122 152.057 328.899C153.231 331.769 155.089 334.143 157.292 335.582C159.359 336.932 161.467 337.28 163.231 336.559C167.03 335.005 168.202 329.042 165.84 323.266C164.667 320.396 162.808 318.022 160.605 316.582C159.243 315.692 157.863 315.239 156.575 315.239Z" fill="#E0AA63"/>
<path d="M172.564 351.061C169.467 351.061 165.984 349.909 162.888 347.617C156.826 343.128 154.511 335.939 157.729 331.593C160.948 327.246 168.498 327.362 174.561 331.851C180.624 336.341 182.938 343.53 179.719 347.875C178.144 350.003 175.532 351.061 172.564 351.061ZM164.863 330.729C162.653 330.729 160.756 331.477 159.629 332.998C157.186 336.298 159.279 342.004 164.294 345.717C169.31 349.431 175.378 349.768 177.82 346.47C180.263 343.17 178.17 337.465 173.154 333.751C170.453 331.751 167.444 330.729 164.863 330.729Z" fill="#E0AA63"/>
<path d="M187.956 358.558C186.443 358.558 184.861 358.36 183.268 357.941C179.809 357.034 176.788 355.235 174.764 352.88C172.634 350.401 171.839 347.596 172.526 344.981C173.213 342.366 175.283 340.311 178.357 339.199C181.277 338.143 184.791 338.059 188.25 338.968C195.546 340.885 200.365 346.699 198.991 351.929C197.917 356.017 193.374 358.558 187.956 358.558ZM183.5 340.703C181.956 340.703 180.482 340.944 179.161 341.421C176.84 342.262 175.296 343.739 174.812 345.581C174.329 347.422 174.948 349.468 176.557 351.339C178.271 353.335 180.868 354.867 183.867 355.656C189.904 357.241 195.662 355.299 196.704 351.329C197.746 347.359 193.684 342.838 187.648 341.253C186.25 340.886 184.849 340.703 183.5 340.703Z" fill="#E0AA63"/>
<path d="M202.57 357.568C197.012 357.568 192.359 354.923 191.341 350.735C190.063 345.479 194.987 339.754 202.317 337.971C209.646 336.187 216.651 339.014 217.929 344.27C219.206 349.525 214.282 355.25 206.952 357.034C205.463 357.396 203.987 357.568 202.57 357.568ZM206.786 339.789C205.53 339.789 204.211 339.943 202.875 340.268C196.812 341.742 192.667 346.187 193.637 350.176C194.607 354.164 200.329 356.207 206.393 354.737C212.457 353.262 216.601 348.818 215.632 344.829C214.875 341.719 211.229 339.789 206.786 339.789Z" fill="#E0AA63"/>
<path d="M218.425 351.258C215.361 351.258 212.674 350.152 211.098 347.941C209.528 345.739 209.277 342.834 210.39 339.76C211.448 336.84 213.635 334.089 216.547 332.014C222.69 327.635 230.242 327.657 233.381 332.062C236.519 336.466 234.075 343.611 227.932 347.99C224.872 350.17 221.464 351.258 218.425 351.258ZM226.084 331.068C223.543 331.068 220.594 332.033 217.919 333.939C215.394 335.739 213.509 338.092 212.613 340.566C211.772 342.887 211.918 345.018 213.023 346.569C215.406 349.912 221.478 349.686 226.56 346.065C231.642 342.442 233.838 336.777 231.456 333.434C230.328 331.85 228.37 331.068 226.084 331.068Z" fill="#E0AA63"/>
<path d="M231.721 337.235C231.033 337.235 230.349 337.139 229.678 336.941C224.492 335.401 222.02 328.266 224.167 321.034C226.314 313.801 232.282 309.176 237.462 310.708H237.463C242.648 312.248 245.119 319.384 242.973 326.615C241.104 332.911 236.342 337.235 231.721 337.235ZM235.361 312.769C231.789 312.769 227.997 316.437 226.432 321.706C224.656 327.689 226.414 333.507 230.35 334.675C234.282 335.845 238.931 331.925 240.707 325.944C242.483 319.961 240.726 314.143 236.79 312.975H236.79C236.322 312.836 235.843 312.769 235.361 312.769Z" fill="#E0AA63"/>
<path d="M236.523 318.491C234.068 318.491 231.694 317.253 229.774 314.956C227.782 312.573 226.504 309.3 226.175 305.738C225.481 298.227 229.299 291.711 234.683 291.212C237.374 290.961 240.013 292.207 242.11 294.716C244.102 297.099 245.38 300.372 245.709 303.934C246.038 307.496 245.381 310.947 243.859 313.655C242.258 316.504 239.893 318.211 237.199 318.459C236.974 318.48 236.749 318.491 236.523 318.491ZM235.349 293.546C235.199 293.546 235.05 293.553 234.902 293.567C230.813 293.944 227.955 299.308 228.528 305.521C228.814 308.609 229.9 311.422 231.587 313.44C233.17 315.334 235.085 316.277 236.983 316.105C238.879 315.931 240.59 314.65 241.799 312.498C243.088 310.205 243.64 307.239 243.356 304.151C243.071 301.063 241.984 298.25 240.297 296.232C238.838 294.487 237.097 293.546 235.349 293.546Z" fill="#E0AA63"/>
<path d="M266.409 439.2C266.189 439.2 265.97 439.139 265.777 439.017L105.079 337.326C104.527 336.977 104.363 336.247 104.711 335.695C105.06 335.144 105.789 334.979 106.342 335.33L265.168 435.835L261.195 288.526C261.178 287.872 261.692 287.33 262.345 287.312C262.999 287.314 263.541 287.808 263.558 288.461L267.591 437.987C267.603 438.423 267.373 438.831 266.993 439.047C266.812 439.15 266.61 439.2 266.409 439.2Z" fill="white"/>
<path d="M61.9793 268.756C61.9793 268.756 209.413 338.878 304.138 214.781C304.138 214.781 248.756 157.846 204.034 139.649C159.312 121.452 116.939 147.805 61.9793 268.756Z" fill="#363E44"/>
<path d="M148.268 151.193C148.268 151.193 135.663 84.3773 79.2556 108.02C39.5777 124.651 65.0479 161.989 88.1683 166.014C112.012 170.166 148.268 151.193 148.268 151.193Z" fill="#363E44"/>
<path d="M148.27 152.376C148.22 152.376 148.171 152.372 148.121 152.366C147.473 152.284 147.014 151.694 147.096 151.046C147.136 150.721 151.01 118.285 135.603 107.323C127.586 101.617 115.6 102.638 99.9812 110.353C99.3942 110.64 98.6873 110.401 98.3984 109.817C98.1094 109.231 98.349 108.523 98.9344 108.234C115.397 100.104 128.197 99.148 136.976 105.4C153.531 117.183 149.615 149.952 149.441 151.342C149.366 151.939 148.857 152.376 148.27 152.376Z" fill="#363E44"/>
<path d="M93.9887 270.812C93.9549 270.812 93.9201 270.811 93.8847 270.807C93.235 270.751 92.7537 270.178 92.81 269.527C97.6512 213.913 124.525 187.164 124.795 186.899C125.263 186.445 126.011 186.456 126.466 186.921C126.921 187.389 126.912 188.137 126.445 188.593C126.18 188.851 99.9243 215.055 95.1641 269.733C95.111 270.348 94.5949 270.812 93.9887 270.812Z" fill="#2D353A"/>
<path d="M106.18 158.879C96.9372 158.879 88.6619 156.218 81.4457 150.907C70.3543 142.743 65.7002 130.918 65.7184 129.598C65.7275 128.951 66.255 128.434 66.8998 128.434C66.9057 128.434 66.911 128.434 66.9169 128.434C67.5253 128.443 68.0195 128.909 68.0768 129.501C68.4477 131.197 73.7884 143.968 86.2794 151.261C96.8756 157.449 109.693 158.152 124.376 153.354C125 153.149 125.664 153.49 125.867 154.11C126.069 154.729 125.731 155.398 125.11 155.6C118.42 157.788 112.101 158.879 106.18 158.879Z" fill="#2D353A"/>
<path d="M242.495 245.064C232.249 258.169 188.061 244.054 188.061 244.054L153.954 206.375C147.268 183.947 160.029 160.346 182.456 153.66C204.884 146.974 228.484 159.735 235.171 182.162C235.17 182.163 252.93 231.715 242.495 245.064Z" fill="#E2A18D"/>
<path d="M220.61 305.209L216.994 210.428L165.697 212.707L169.313 307.488C169.943 321.654 181.936 332.626 196.101 331.997C210.267 331.368 221.239 319.374 220.61 305.209Z" fill="#E2A18D"/>
<path d="M233.687 194.232C233.687 194.232 248.635 202.77 248.968 206.101C249.365 210.077 237.362 216.153 237.362 216.153C237.362 216.153 233.998 194.17 233.687 194.232Z" fill="#E2A18D"/>
<path d="M196.993 208.871C196.993 208.871 200.463 201.602 207.364 196.551C208.833 195.476 214.663 209.253 212.782 209.607C204.513 211.168 196.993 208.871 196.993 208.871Z" fill="white"/>
<path d="M218.46 207.872C228.597 203.413 233.702 192.721 233.702 192.721C233.702 192.721 222.371 189.261 212.235 193.72C210.459 194.501 208.848 195.479 207.382 196.552C206.771 201.702 208.947 206.578 212.773 209.607C214.657 209.253 216.579 208.7 218.46 207.872Z" fill="#363E44"/>
<path d="M227.702 227.612C227.037 227.612 226.367 227.519 225.71 227.325C223.13 226.565 221.164 224.353 220.701 221.689C220.59 221.046 221.021 220.435 221.664 220.323C222.307 220.213 222.918 220.642 223.03 221.285C223.339 223.07 224.653 224.55 226.377 225.058C228.168 225.584 230.114 225.002 231.34 223.575C231.766 223.08 232.511 223.024 233.007 223.448C233.502 223.874 233.558 224.619 233.133 225.115C231.751 226.723 229.752 227.612 227.702 227.612Z" fill="#363E44"/>
<path d="M220.897 252.38C220.873 252.38 220.848 252.379 220.823 252.378C205.428 251.43 188.083 245.935 187.91 245.879C187.287 245.681 186.945 245.016 187.143 244.394C187.342 243.773 188.006 243.425 188.629 243.629C188.8 243.683 205.872 249.09 220.968 250.019C221.62 250.059 222.115 250.619 222.075 251.271C222.037 251.898 221.516 252.38 220.897 252.38Z" fill="#363E44"/>
<path d="M151.836 232.109C139.736 226.31 136.018 197.784 143.452 179.513C153.037 155.956 180.834 142.049 203.294 143.944C208.815 144.41 221.431 147.11 225.622 154.979C228.884 161.106 222.667 173.839 212.134 177.499C197.324 182.645 176.57 179.218 184.241 196.094C207.485 247.231 165.131 238.481 151.836 232.109Z" fill="#363E44"/>
<path d="M868.544 893.949C830.218 893.949 797.84 862.552 797.84 825.389C797.84 787.584 828.69 756.828 866.609 756.828C904.528 756.828 935.378 787.584 935.378 825.389C935.378 863.834 906.021 893.949 868.544 893.949ZM866.61 759.192C829.993 759.192 800.204 788.888 800.204 825.389C800.204 861.27 831.5 891.585 868.544 891.585C904.696 891.585 933.015 862.508 933.015 825.389C933.015 788.888 903.226 759.192 866.61 759.192Z" fill="#D87355"/>
<path d="M898.601 879.511C898.189 879.511 897.789 879.295 897.571 878.91C897.25 878.343 897.45 877.621 898.018 877.3C906.181 872.685 911.501 866.081 916.978 857.586C917.331 857.037 918.061 856.881 918.611 857.233C919.16 857.587 919.318 858.318 918.964 858.867C913.298 867.656 907.766 874.504 899.182 879.357C898.998 879.461 898.798 879.511 898.601 879.511Z" fill="#D87355"/>
<path d="M927.552 823.704C926.925 823.704 926.401 823.21 926.372 822.578C924.889 790.711 898.638 765.749 866.61 765.749C839.056 765.749 815.178 784.341 808.544 810.961C808.386 811.593 807.743 811.974 807.112 811.821C806.478 811.663 806.093 811.022 806.251 810.388C813.148 782.714 837.968 763.386 866.61 763.386C899.903 763.386 927.192 789.338 928.734 822.467C928.764 823.119 928.26 823.673 927.608 823.703C927.589 823.704 927.571 823.704 927.552 823.704Z" fill="#D87355"/>
<path d="M866.609 881.344C897.608 881.344 922.738 856.292 922.738 825.388C922.738 794.485 897.608 769.433 866.609 769.433C835.61 769.433 810.48 794.485 810.48 825.388C810.48 856.292 835.61 881.344 866.609 881.344Z" fill="#D87355"/>
<path d="M878.255 841.231C878.255 838.667 877.33 836.462 875.48 834.618C873.63 832.774 870.594 831.131 866.374 829.69C860.535 827.932 856.126 825.583 853.149 822.644C850.171 819.705 848.683 815.786 848.683 810.886C848.683 806.131 850.049 802.256 852.781 799.258C855.512 796.261 859.277 794.46 864.076 793.855V784.302H870.927V793.898C875.783 794.589 879.548 796.658 882.222 800.101C884.896 803.545 886.233 808.162 886.233 813.955H877.735C877.735 810.036 876.824 806.866 875.003 804.445C873.182 802.025 870.652 800.814 867.415 800.814C864.004 800.814 861.453 801.7 859.762 803.473C858.071 805.245 857.225 807.673 857.225 810.757C857.225 813.552 858.1 815.814 859.849 817.543C861.597 819.272 864.755 820.914 869.322 822.471C875.248 824.373 879.643 826.743 882.504 829.581C885.365 832.42 886.797 836.274 886.797 841.145C886.797 846.101 885.308 850.042 882.331 852.967C879.353 855.892 875.263 857.628 870.06 858.175V866.475H863.252V858.219C858.28 857.7 854.204 855.892 851.024 852.794C847.844 849.696 846.312 845.15 846.428 839.156L846.515 838.94H854.753C854.753 843.378 855.874 846.541 858.114 848.428C860.354 850.316 863.107 851.259 866.374 851.259C870.103 851.259 873.015 850.373 875.111 848.601C877.206 846.829 878.255 844.373 878.255 841.231Z" fill="#EFBC73"/>
<path d="M719.679 964.221C689.034 964.221 663.145 939.113 663.145 909.394C663.145 879.163 687.815 854.567 718.138 854.567C748.461 854.567 773.131 879.163 773.131 909.394C773.131 940.138 749.652 964.221 719.679 964.221ZM718.138 856.93C689.118 856.93 665.509 880.465 665.509 909.394C665.509 937.832 690.315 961.857 719.679 961.857C748.327 961.857 770.767 938.813 770.767 909.394C770.768 880.466 747.158 856.93 718.138 856.93Z" fill="#D87355"/>
<path d="M743.61 952.726C743.197 952.726 742.797 952.51 742.579 952.126C742.258 951.558 742.458 950.837 743.026 950.516C749.484 946.864 753.698 941.632 758.038 934.899C758.391 934.349 759.122 934.193 759.672 934.546C760.22 934.9 760.378 935.631 760.025 936.18C755.495 943.206 751.068 948.683 744.19 952.572C744.007 952.677 743.806 952.726 743.61 952.726Z" fill="#D87355"/>
<path d="M766.659 908.294C766.031 908.294 765.508 907.8 765.479 907.168C764.304 881.924 743.51 862.152 718.138 862.152C696.312 862.152 677.397 876.879 672.141 897.965C671.983 898.598 671.339 898.977 670.709 898.826C670.076 898.668 669.69 898.026 669.848 897.393C675.366 875.252 695.224 859.788 718.138 859.788C744.775 859.788 766.606 880.551 767.84 907.057C767.87 907.709 767.367 908.263 766.715 908.293C766.696 908.294 766.677 908.294 766.659 908.294Z" fill="#D87355"/>
<path d="M718.138 953.944C742.819 953.944 762.827 933.998 762.827 909.394C762.827 884.79 742.819 864.844 718.138 864.844C693.457 864.844 673.45 884.79 673.45 909.394C673.45 933.998 693.457 953.944 718.138 953.944Z" fill="#D87355"/>
<path d="M727.41 922.007C727.41 919.965 726.673 918.21 725.201 916.742C723.728 915.274 721.311 913.966 717.951 912.818C713.302 911.419 709.792 909.549 707.422 907.208C705.051 904.868 703.866 901.748 703.866 897.847C703.866 894.061 704.954 890.976 707.129 888.589C709.303 886.204 712.301 884.769 716.122 884.288V876.682H721.577V884.322C725.443 884.872 728.441 886.519 730.57 889.26C732.698 892.002 733.763 895.679 733.763 900.291H726.997C726.997 897.171 726.272 894.647 724.822 892.719C723.372 890.792 721.358 889.828 718.78 889.828C716.065 889.828 714.034 890.534 712.687 891.945C711.341 893.356 710.667 895.289 710.667 897.744C710.667 899.969 711.363 901.77 712.756 903.147C714.149 904.524 716.663 905.831 720.299 907.071C725.017 908.585 728.516 910.472 730.794 912.732C733.073 914.992 734.212 918.061 734.212 921.938C734.212 925.885 733.026 929.023 730.656 931.351C728.285 933.68 725.029 935.062 720.886 935.498V942.106H715.466V935.532C711.507 935.119 708.262 933.68 705.731 931.213C703.199 928.747 701.979 925.128 702.072 920.355L702.141 920.183H708.7C708.7 923.717 709.592 926.235 711.376 927.737C713.159 929.24 715.351 929.992 717.952 929.992C720.921 929.992 723.239 929.286 724.908 927.875C726.576 926.464 727.41 924.508 727.41 922.007Z" fill="#EFBC73"/>
<path d="M559.222 965.61C533.759 965.61 512.247 944.744 512.247 920.047C512.247 894.923 532.749 874.483 557.948 874.483C583.147 874.483 603.648 894.923 603.648 920.047C603.649 945.596 584.134 965.61 559.222 965.61ZM557.948 876.847C534.052 876.847 514.61 896.227 514.61 920.047C514.61 943.463 535.04 963.247 559.222 963.247C582.809 963.247 601.285 944.271 601.285 920.047C601.285 896.226 581.844 876.847 557.948 876.847Z" fill="#D87355"/>
<path d="M579.022 956.1C578.609 956.1 578.209 955.884 577.991 955.499C577.67 954.932 577.87 954.21 578.438 953.89C583.743 950.89 587.211 946.582 590.787 941.035C591.14 940.486 591.87 940.33 592.42 940.682C592.969 941.037 593.127 941.768 592.773 942.316C589.008 948.156 585.328 952.709 579.602 955.946C579.418 956.05 579.218 956.1 579.022 956.1Z" fill="#D87355"/>
<path d="M598.09 919.34C597.463 919.34 596.939 918.846 596.91 918.214C595.944 897.439 578.83 881.166 557.949 881.166C539.985 881.166 524.418 893.286 520.093 910.641C519.934 911.273 519.289 911.653 518.66 911.501C518.027 911.343 517.641 910.702 517.8 910.068C522.388 891.659 538.898 878.802 557.949 878.802C580.095 878.802 598.246 896.065 599.272 918.103C599.302 918.755 598.798 919.309 598.146 919.339C598.127 919.34 598.108 919.34 598.09 919.34Z" fill="#D87355"/>
<path d="M557.948 956.904C578.367 956.904 594.92 940.402 594.92 920.046C594.92 899.69 578.367 883.188 557.948 883.188C537.529 883.188 520.976 899.69 520.976 920.046C520.976 940.402 537.529 956.904 557.948 956.904Z" fill="#D87355"/>
<path d="M565.619 930.482C565.619 928.792 565.009 927.34 563.791 926.125C562.572 924.91 560.573 923.829 557.793 922.879C553.947 921.721 551.043 920.174 549.082 918.238C547.121 916.302 546.141 913.72 546.141 910.493C546.141 907.361 547.04 904.808 548.84 902.834C550.639 900.86 553.119 899.674 556.28 899.275V892.982H560.793V899.304C563.992 899.759 566.472 901.121 568.233 903.389C569.994 905.658 570.875 908.7 570.875 912.515H565.277C565.277 909.933 564.677 907.845 563.478 906.251C562.278 904.656 560.611 903.859 558.479 903.859C556.232 903.859 554.552 904.443 553.438 905.61C552.324 906.777 551.767 908.377 551.767 910.408C551.767 912.249 552.343 913.739 553.496 914.878C554.647 916.017 556.727 917.099 559.736 918.124C563.639 919.377 566.534 920.938 568.419 922.808C570.304 924.677 571.246 927.216 571.246 930.424C571.246 933.689 570.265 936.285 568.305 938.212C566.343 940.139 563.65 941.282 560.222 941.643V947.109H555.738V941.671C552.463 941.33 549.778 940.138 547.684 938.098C545.589 936.058 544.58 933.063 544.656 929.114L544.714 928.972H550.14C550.14 931.895 550.878 933.978 552.354 935.221C553.829 936.465 555.643 937.086 557.795 937.086C560.251 937.086 562.169 936.502 563.55 935.335C564.928 934.169 565.619 932.551 565.619 930.482Z" fill="#EFBC73"/>
<path d="M440.57 235.984H412.7C412.047 235.984 411.518 235.456 411.518 234.802V227.545C408.148 226.882 404.803 225.986 401.548 224.878L397.922 231.16C397.765 231.431 397.507 231.63 397.204 231.711C396.902 231.789 396.579 231.748 396.308 231.593L372.172 217.657C371.606 217.331 371.413 216.608 371.739 216.043L375.374 209.746C372.791 207.482 370.345 205.036 368.082 202.455L361.785 206.09C361.217 206.415 360.496 206.223 360.171 205.657L346.236 181.521C345.91 180.955 346.103 180.233 346.669 179.906L352.949 176.28C351.841 173.022 350.945 169.677 350.282 166.31H343.025C342.372 166.31 341.843 165.782 341.843 165.128V137.259C341.843 136.605 342.372 136.077 343.025 136.077H350.282C350.945 132.71 351.841 129.365 352.949 126.107L346.669 122.481C346.103 122.154 345.91 121.432 346.236 120.866L360.171 96.7298C360.328 96.4585 360.585 96.2602 360.888 96.1793C361.191 96.1 361.514 96.1412 361.785 96.2972L368.083 99.9334C370.344 97.3542 372.79 94.9074 375.375 92.6406L371.739 86.3437C371.413 85.7782 371.606 85.0557 372.172 84.7292L396.308 70.7949C396.579 70.6378 396.902 70.5965 397.204 70.6769C397.507 70.7579 397.765 70.9562 397.922 71.2274L401.545 77.5034C404.584 76.4395 408.005 75.3176 411.518 74.5929V67.5842C411.518 66.9308 412.047 66.4023 412.7 66.4023H440.57C441.222 66.4023 441.751 66.9308 441.751 67.5842V74.8411C445.117 75.5036 448.463 76.3993 451.722 77.5083L455.348 71.2279C455.505 70.9567 455.762 70.7584 456.065 70.6775C456.369 70.5976 456.691 70.6394 456.962 70.7954L481.098 84.7298C481.369 84.8868 481.568 85.1452 481.649 85.4475C481.73 85.7498 481.687 86.073 481.531 86.3442L477.895 92.6412C480.477 94.9058 482.924 97.352 485.187 99.9339L491.485 96.2977C491.756 96.1407 492.08 96.0994 492.381 96.1798C492.684 96.2608 492.942 96.4591 493.099 96.7303L507.034 120.867C507.359 121.432 507.166 122.155 506.601 122.481L500.321 126.107C501.429 129.365 502.324 132.711 502.988 136.077H510.245C510.898 136.077 511.427 136.606 511.427 137.259V165.128C511.427 165.782 510.898 166.31 510.245 166.31H502.988C502.324 169.677 501.429 173.022 500.321 176.28L506.601 179.906C507.166 180.233 507.36 180.955 507.034 181.521L493.099 205.657C492.773 206.223 492.051 206.416 491.485 206.09L485.187 202.455C482.924 205.038 480.477 207.483 477.895 209.746L481.531 216.043C481.687 216.314 481.729 216.637 481.649 216.94C481.568 217.242 481.369 217.501 481.098 217.657L456.962 231.593C456.69 231.748 456.366 231.789 456.065 231.711C455.762 231.63 455.504 231.431 455.348 231.16L451.722 224.878C448.467 225.986 445.122 226.882 441.751 227.545V234.802C441.751 235.456 441.222 235.984 440.57 235.984ZM413.882 233.62H439.388V226.568C439.388 225.997 439.796 225.508 440.357 225.406C444.253 224.69 448.124 223.654 451.862 222.328C452.398 222.138 452.996 222.357 453.281 222.851L456.804 228.954L478.893 216.201L475.36 210.082C475.075 209.589 475.183 208.962 475.616 208.592C478.628 206.021 481.459 203.188 484.034 200.175C484.404 199.741 485.029 199.636 485.523 199.919L491.643 203.452L504.395 181.363L498.292 177.839C497.799 177.554 497.579 176.957 497.77 176.421C499.097 172.677 500.133 168.806 500.847 164.914C500.95 164.353 501.439 163.946 502.009 163.946H509.062V138.44H502.009C501.439 138.44 500.949 138.033 500.847 137.472C500.132 133.581 499.097 129.71 497.77 125.966C497.58 125.429 497.799 124.833 498.292 124.548L504.395 121.024L491.643 98.9349L485.523 102.469C485.031 102.753 484.405 102.646 484.034 102.212C481.461 99.2013 478.629 96.3679 475.616 93.7946C475.183 93.4242 475.075 92.7977 475.36 92.3045L478.893 86.1856L456.804 73.4331L453.281 79.5359C452.996 80.0301 452.4 80.2504 451.863 80.0585C448.118 78.7314 444.246 77.6948 440.357 76.9808C439.796 76.8779 439.388 76.3886 439.388 75.8188V68.7661H413.882V75.5658C413.882 76.1361 413.475 76.6255 412.913 76.7278C408.869 77.4713 404.854 78.8365 401.407 80.0585C400.87 80.2499 400.274 80.0285 399.989 79.5359L396.466 73.4331L374.377 86.1856L377.91 92.3045C378.195 92.7971 378.087 93.4242 377.654 93.7935C374.639 96.3706 371.807 99.2039 369.236 102.212C368.868 102.647 368.239 102.751 367.747 102.469L361.627 98.9349L348.875 121.024L354.978 124.548C355.471 124.833 355.691 125.429 355.5 125.966C354.173 129.71 353.138 133.58 352.423 137.472C352.32 138.033 351.831 138.44 351.261 138.44H344.208V163.946H351.261C351.831 163.946 352.321 164.353 352.423 164.914C353.138 168.806 354.173 172.677 355.5 176.421C355.691 176.957 355.471 177.554 354.978 177.839L348.875 181.363L361.627 203.452L367.747 199.919C368.241 199.637 368.868 199.741 369.236 200.175C371.808 203.186 374.64 206.017 377.654 208.592C378.087 208.962 378.195 209.589 377.91 210.082L374.377 216.201L396.466 228.954L399.989 222.851C400.275 222.356 400.873 222.137 401.408 222.328C405.146 223.654 409.017 224.691 412.913 225.406C413.475 225.509 413.882 225.998 413.882 226.568V233.62ZM426.742 202.068C413.264 202.068 400.342 196.927 390.621 187.207C376.472 173.056 372.025 152.119 379.017 132.565C383.869 118.994 394.435 108.426 408.008 103.574C427.56 96.5829 448.498 101.028 462.648 115.181C476.798 129.331 481.245 150.268 474.253 169.822C469.4 183.393 458.833 193.96 445.262 198.812C439.142 201 432.883 202.068 426.742 202.068ZM426.519 102.685C420.645 102.685 414.661 103.706 408.803 105.799C395.901 110.413 385.856 120.458 381.242 133.361C374.562 152.045 378.796 172.038 392.293 185.535C405.79 199.033 425.783 203.265 444.466 196.587C457.368 191.974 467.413 181.929 472.027 169.026C478.708 150.342 474.474 130.349 460.977 116.852C451.711 107.586 439.383 102.685 426.519 102.685Z" fill="white"/>
</svg>
